# xmcd
#
# Track frame offsets:
#	150
#	20755
#	38507
#	59822
#	96395
#	128807
#	155655
#	181315
#
# Disc length: 2784 seconds
#
# Revision: 0
# Processed by: cddbd v1.4PL0 Copyright (c) Steve Scherf et al.
# Submitted via: dBpowerAMP V4.0
#
DISCID=6d0ade08
DTITLE=Various Artist - A Taste of Blue Note 99
DYEAR=1900
DGENRE=jazz
TTITLE0=Jason Moran - Gangsterism On Canvas
TTITLE1=Medeski, Martin and WOord - Hey-Hee-Hi-Ho (Illy B Remix)
TTITLE2=Jacky Terrasson - Money
TTITLE3=Joe Lovano and Greg Osby - Broadway Blues
TTITLE4=Chucho Valdes - Son Muntuno
TTITLE5=Rodney Jones - Light and Shadows
TTITLE6=Benny Green - Punjab
TTITLE7=Javon Jackson - In The Pocket
EXTD=
EXTT0=
EXTT1=
EXTT2=
EXTT3=
EXTT4=
EXTT5=
EXTT6=
EXTT7=
PLAYORDER=
